<svg width="25" height="24" viewBox="0 0 25 24" fill="none" xmlns="http://www.w3.org/2000/svg">
<path d="M3.5 13.5H6.5V19.5H3.5" stroke="#65B947" stroke-width="0.9375"/>
<path d="M6.5 14.25H9.5C9.89782 14.25 10.2794 14.408 10.5607 14.6893C10.842 14.9706 11 15.3522 11 15.75H14.375C14.6734 15.75 14.9595 15.8685 15.1705 16.0795C15.3815 16.2905 15.5 16.5766 15.5 16.875C15.5 17.1734 15.3815 17.4595 15.1705 17.6705C14.9595 17.8815 14.6734 18 14.375 18H10.25" stroke="#65B947" stroke-width="0.9375"/>
<path d="M15.5 16.7999L17.9863 15.2999C18.3264 15.0973 18.7153 14.991 19.1113 14.9924C19.396 14.9922 19.678 15.048 19.9412 15.1567C20.2043 15.2655 20.4435 15.425 20.645 15.6262L21.5 16.4999L14.7762 20.5349C14.2673 20.8392 13.6855 20.9999 13.0925 20.9999C12.7005 20.9996 12.3117 20.9285 11.945 20.7899L6.5 18.7499" stroke="#65B947" stroke-width="0.9375"/>
<path d="M14.75 13.5C17.6495 13.5 20 11.1495 20 8.25C20 5.35051 17.6495 3 14.75 3C11.8505 3 9.5 5.35051 9.5 8.25C9.5 11.1495 11.8505 13.5 14.75 13.5Z" stroke="#65B947" stroke-width="0.9375"/>
<path d="M14.1238 8.25003C13.8039 8.23251 13.5029 8.09311 13.2827 7.86049C13.0625 7.62788 12.9398 7.31973 12.9398 6.9994C12.9398 6.67908 13.0625 6.37093 13.2827 6.13831C13.5029 5.9057 13.8039 5.7663 14.1238 5.74878" stroke="#65B947" stroke-width="0.9375"/>
<path d="M15.3762 8.25C15.6961 8.26752 15.997 8.40692 16.2173 8.63954C16.4375 8.87215 16.5602 9.1803 16.5602 9.50062C16.5602 9.82095 16.4375 10.1291 16.2173 10.3617C15.997 10.5943 15.6961 10.7337 15.3762 10.7513" stroke="#65B947" stroke-width="0.9375"/>
<path d="M14.75 4.5V5.74875" stroke="#65B947" stroke-width="0.9375"/>
<path d="M14.75 10.7512V12" stroke="#65B947" stroke-width="0.9375"/>
<path d="M14.1238 8.25H15.3763" stroke="#65B947" stroke-width="0.9375"/>
<path d="M16.625 6.37503C16.625 6.37503 15.9988 5.74878 15.3763 5.74878H14.1238" stroke="#65B947" stroke-width="0.9375"/>
<path d="M12.875 10.125C12.875 10.125 13.5013 10.7513 14.1238 10.7513H15.3762" stroke="#65B947" stroke-width="0.9375"/>
</svg>
