<svg width="20" height="20" viewBox="0 0 20 20" fill="none" xmlns="http://www.w3.org/2000/svg">
<g clip-path="url(#clip0_59_121)">
<path d="M15.625 5.125C15.4375 2.625 13.375 0.625 10.8125 0.625H5.5C2.8125 0.625 0.625 2.8125 0.625 5.4375V14.375C0.625 14.625 0.75 14.8125 1 14.9375C1.0625 15 1.1875 15 1.25 15C1.375 15 1.5625 14.9375 1.6875 14.875C2.5 14.1875 3.4375 13.625 4.375 13.1875V18.75C4.375 19 4.5 19.1875 4.75 19.3125C4.8125 19.375 4.9375 19.375 5 19.375C5.125 19.375 5.3125 19.3125 5.4375 19.25C7.25 17.625 9.625 16.75 12.0625 16.75H14.5625C17.25 16.75 19.4375 14.5625 19.4375 11.9375V9.8125C19.375 7.5625 17.75 5.625 15.625 5.125ZM18.125 11.9375C18.125 13.9375 16.5 15.5 14.5 15.5H12C9.75 15.5 7.5 16.1875 5.625 17.5V12.75C6.5 12.5 7.375 12.375 8.3125 12.375H10.8125C13.5 12.375 15.6875 10.1875 15.6875 7.5625V6.4375C17.125 6.875 18.1875 8.25 18.1875 9.8125V11.9375H18.125Z" fill="#64B846"/>
</g>
<defs>
<clipPath id="clip0_59_121">
<rect width="20" height="20" fill="white"/>
</clipPath>
</defs>
</svg>
