<svg width="25" height="24" viewBox="0 0 25 24" fill="none" xmlns="http://www.w3.org/2000/svg">
<path d="M6.67596 8.11779C6.67596 7.84165 6.89982 7.6178 7.17596 7.6178H14.2778C14.5539 7.6178 14.7778 7.84165 14.7778 8.11779C14.7778 8.39393 14.5539 8.61778 14.2778 8.61778H7.17596C6.89982 8.61778 6.67596 8.39393 6.67596 8.11779ZM7.17596 10.296C6.89982 10.296 6.67596 10.5199 6.67596 10.796C6.67596 11.0722 6.89982 11.296 7.17596 11.296H14.2778C14.5539 11.296 14.7778 11.0722 14.7778 10.796C14.7778 10.5199 14.5539 10.296 14.2778 10.296H7.17596ZM6.67596 13.4741C6.67596 13.198 6.89982 12.9741 7.17596 12.9741H14.2778C14.5539 12.9741 14.7778 13.198 14.7778 13.4741C14.7778 13.7503 14.5539 13.9741 14.2778 13.9741H7.17596C6.89982 13.9741 6.67596 13.7503 6.67596 13.4741ZM7.17596 15.6429C6.89982 15.6429 6.67596 15.8668 6.67596 16.1429C6.67596 16.4191 6.89982 16.6429 7.17596 16.6429H14.2778C14.5539 16.6429 14.7778 16.4191 14.7778 16.1429C14.7778 15.8668 14.5539 15.6429 14.2778 15.6429H7.17596Z" fill="#65B947"/>
<path d="M8.13429 1.01135H8.50118C8.53369 1.00472 8.56734 1.00123 8.60182 1.00123C8.6363 1.00123 8.66995 1.00472 8.70246 1.01135H15.8333C16.7209 1.01135 17.4443 1.73602 17.4443 2.62338V17.8396C17.4443 18.7269 16.7209 19.4516 15.8333 19.4516H5.61106C4.72341 19.4516 3.99994 18.7269 3.99994 17.8396V4.98642C3.99994 4.96481 4.0013 4.94351 4.00397 4.92263C4.01489 4.66308 4.11748 4.40185 4.33177 4.18737L7.19717 1.31967C7.46672 1.05633 7.81195 0.965557 8.13429 1.01135ZM5.03918 4.8942L7.89745 2.03356C7.91956 2.01249 7.93983 2.00454 7.95785 2.00154C7.97883 1.99805 8.00398 2.00039 8.02882 2.01068C8.05355 2.02092 8.07178 2.03646 8.08301 2.0524C8.09159 2.06459 8.10012 2.08235 8.10183 2.11128V3.7531C8.10183 3.7591 8.10192 3.76507 8.10213 3.77103V4.67056C8.10213 4.90449 7.90894 5.09724 7.6762 5.09724H5.12065C5.08952 5.09724 5.07047 5.0888 5.05671 5.07903C5.04063 5.06763 5.02477 5.04891 5.01438 5.02385C5.004 4.9988 5.00199 4.97428 5.00538 4.95457C5.00829 4.93765 5.01605 4.91735 5.03916 4.89422L5.03918 4.8942ZM9.10184 2.01136V2.09398C9.10205 2.10333 9.10214 2.11273 9.10214 2.12215V4.67053C9.10214 5.45597 8.46202 6.09722 7.67623 6.09722L4.99997 6.09729V17.8396C4.99997 18.1754 5.27651 18.4516 5.61108 18.4516H15.8333C16.1679 18.4516 16.4444 18.1754 16.4444 17.8396V2.62338C16.4444 2.28753 16.1679 2.01136 15.8333 2.01136H9.10184Z" fill="#65B947"/>
<path d="M18.7223 3.01223C18.4461 3.01223 18.2223 3.23608 18.2223 3.51222C18.2223 3.78836 18.4461 4.01221 18.7223 4.01221H19.3889C19.7235 4.01221 20 4.28838 20 4.62424V21.388C20 21.7239 19.7235 22 19.3889 22H9.1667C8.83213 22 8.55559 21.7238 8.55559 21.388V20.73C8.55559 20.4539 8.33174 20.23 8.05559 20.23C7.77945 20.23 7.5556 20.4539 7.5556 20.73V21.388C7.5556 22.2754 8.27907 23 9.16672 23H19.3889C20.2766 23 21 22.2754 21 21.388V4.62424C21 3.73687 20.2766 3.01221 19.3889 3.01221H18.7223L18.7223 3.01223Z" fill="#65B947"/>
</svg>
