<svg width="24" height="24" viewBox="0 0 24 24" fill="none" xmlns="http://www.w3.org/2000/svg">
<path d="M22.0004 12.1048C22.0004 14.0827 21.4139 16.0162 20.315 17.6607C19.2162 19.3053 17.6543 20.5871 15.827 21.344C13.9997 22.1009 11.9889 22.2989 10.049 21.9131C8.10912 21.5272 6.32722 20.5747 4.92863 19.1762C3.53005 17.7776 2.5776 15.9957 2.19173 14.0558C1.80586 12.1159 2.00391 10.1051 2.76081 8.2778C3.51772 6.45046 4.7995 4.88861 6.44406 3.78975C8.08862 2.69088 10.0221 2.10437 12 2.10437C13.3133 2.10437 14.6137 2.36304 15.827 2.86561C17.0403 3.36818 18.1427 4.1048 19.0714 5.03343C20 5.96205 20.7366 7.06449 21.2392 8.2778C21.7418 9.4911 22.0004 10.7915 22.0004 12.1048ZM18.48 12.1806C18.4793 11.0571 18.1835 9.95357 17.6221 8.98043C17.0607 8.00729 16.2535 7.19874 15.2813 6.63575C14.3091 6.07277 13.206 5.77511 12.0826 5.77259C10.9591 5.77008 9.85472 6.06279 8.88 6.62142C8.28834 6.96244 7.75454 7.39519 7.29852 7.90353V7.03574C7.29852 6.90308 7.24582 6.77584 7.15202 6.68204C7.05821 6.58823 6.93098 6.53553 6.79831 6.53553C6.66565 6.53553 6.53842 6.58823 6.44461 6.68204C6.3508 6.77584 6.2981 6.90308 6.2981 7.03574V9.13258C6.29844 9.26503 6.35129 9.39193 6.44506 9.48547C6.53883 9.579 6.66587 9.63153 6.79831 9.63153H8.89263C9.02078 9.62508 9.14156 9.56964 9.22998 9.47665C9.3184 9.38367 9.36771 9.26026 9.36771 9.13195C9.36771 9.00364 9.3184 8.88023 9.22998 8.78725C9.14156 8.69426 9.02078 8.63882 8.89263 8.63237H7.98695C8.49428 8.04729 9.12155 7.57819 9.82619 7.25693C10.5308 6.93568 11.2963 6.76977 12.0707 6.77048C13.1404 6.77073 14.186 7.08813 15.0753 7.68256C15.9645 8.27698 16.6576 9.12174 17.0668 10.11C17.4761 11.0983 17.5831 12.1857 17.3743 13.2348C17.1656 14.2839 16.6505 15.2476 15.8941 16.0039C15.1377 16.7603 14.1741 17.2754 13.125 17.4842C12.0759 17.6929 10.9885 17.5859 10.0002 17.1767C9.0119 16.7675 8.16714 16.0744 7.57271 15.1851C6.97828 14.2958 6.66088 13.2502 6.66063 12.1806C6.66063 12.0479 6.60793 11.9207 6.51412 11.8269C6.42031 11.7331 6.29308 11.6804 6.16042 11.6804C6.02776 11.6804 5.90053 11.7331 5.80672 11.8269C5.71291 11.9207 5.66021 12.0479 5.66021 12.1806C5.66021 13.0224 5.82602 13.856 6.14818 14.6338C6.47034 15.4115 6.94254 16.1182 7.53781 16.7135C8.13308 17.3088 8.83977 17.781 9.61753 18.1031C10.3953 18.4253 11.2289 18.5911 12.0707 18.5911C12.9126 18.5911 13.7462 18.4253 14.5239 18.1031C15.3017 17.781 16.0084 17.3088 16.6037 16.7135C17.1989 16.1182 17.6711 15.4115 17.9933 14.6338C18.3155 13.856 18.48 13.0224 18.48 12.1806ZM12.4636 12.0555V8.68037C12.4571 8.55222 12.4017 8.43144 12.3087 8.34302C12.2157 8.2546 12.0923 8.20529 11.964 8.20529C11.8357 8.20529 11.7123 8.2546 11.6193 8.34302C11.5263 8.43144 11.4709 8.55222 11.4644 8.68037V12.269C11.4643 12.3453 11.4816 12.4206 11.5151 12.4891C11.5486 12.5577 11.5974 12.6176 11.6577 12.6644L13.5992 14.6046C13.6454 14.6518 13.7006 14.6894 13.7615 14.7151C13.8224 14.7409 13.8878 14.7543 13.9539 14.7547C14.02 14.755 14.0855 14.7422 14.1467 14.7171C14.2078 14.6919 14.2634 14.6549 14.3101 14.6082C14.3569 14.5614 14.3939 14.5059 14.419 14.4447C14.4442 14.3836 14.457 14.3181 14.4566 14.2519C14.4563 14.1858 14.4428 14.1204 14.4171 14.0596C14.3913 13.9987 14.3537 13.9435 14.3065 13.8972L12.4636 12.0555Z" fill="#65B947"/>
</svg>
